<?xml version="1.0" standalone="no"?>
<!DOCTYPE svg PUBLIC "-//W3C//DTD SVG 20010904//EN"
 "http://www.w3.org/TR/2001/REC-SVG-20010904/DTD/svg10.dtd">
<svg version="1.0" xmlns="http://www.w3.org/2000/svg"
 width="2089.000000pt" height="539.000000pt" viewBox="0 0 2089.000000 539.000000"
 preserveAspectRatio="xMidYMid meet">

<g transform="translate(0.000000,539.000000) scale(0.100000,-0.100000)"
fill="#000000" stroke="none">
<path d="M16530 5000 l0 -300 300 0 300 0 0 300 0 300 -300 0 -300 0 0 -300z"/>
<path d="M17400 4042 c0 -1223 1 -1261 20 -1338 34 -136 91 -236 195 -339 103
-104 203 -161 339 -195 77 -19 115 -20 1383 -20 l1303 0 0 300 0 300 -1320 0
-1320 0 0 550 0 550 1320 0 1320 0 0 300 0 300 -1320 0 -1320 0 0 425 0 425
-300 0 -300 0 0 -1258z"/>
<path d="M2252 4490 c-74 -14 -157 -45 -220 -82 -67 -41 -168 -147 -203 -213
-15 -28 -138 -381 -274 -785 -137 -404 -251 -738 -254 -742 -3 -4 -143 395
-311 887 l-305 895 -102 0 c-57 0 -103 -1 -103 -3 0 -20 646 -1848 661 -1868
28 -40 81 -69 138 -76 42 -5 59 -1 105 21 33 16 63 40 75 59 11 18 135 361
276 762 141 402 267 747 281 768 40 62 102 115 172 149 62 31 74 33 167 33 92
0 106 -3 167 -32 76 -36 155 -108 187 -171 12 -23 129 -353 262 -734 132 -381
252 -717 265 -746 67 -138 279 -147 349 -13 13 26 645 1833 645 1845 0 3 -47
6 -103 6 l-104 0 -258 -762 c-142 -420 -278 -823 -303 -896 -24 -73 -46 -131
-48 -129 -3 2 -117 336 -254 741 -137 406 -264 764 -282 798 -63 119 -197 225
-340 270 -72 22 -212 31 -286 18z"/>
<path d="M60 4441 c0 -24 684 -1979 711 -2034 65 -129 226 -251 379 -288 79
-20 242 -17 315 5 163 48 301 160 366 296 20 41 146 400 279 798 140 416 246
718 251 710 4 -7 118 -341 253 -742 135 -401 260 -755 277 -787 58 -108 181
-212 306 -259 92 -34 223 -45 325 -27 167 29 324 134 406 270 22 37 153 401
381 1059 l348 1003 -100 3 c-55 1 -103 -1 -107 -5 -4 -4 -157 -435 -339 -958
-183 -522 -343 -968 -356 -990 -34 -59 -117 -132 -183 -163 -50 -23 -70 -27
-157 -27 -92 0 -105 3 -167 32 -72 34 -154 107 -184 164 -10 19 -133 363 -274
764 -241 685 -259 733 -296 772 -83 87 -224 79 -296 -17 -10 -14 -135 -357
-277 -762 -143 -405 -269 -752 -282 -770 -88 -129 -215 -194 -359 -185 -156 9
-279 92 -344 231 -18 39 -177 486 -352 993 l-319 923 -102 0 c-58 0 -103 -4
-103 -9z"/>
<path d="M5255 4436 c-145 -27 -274 -95 -380 -201 -110 -110 -175 -237 -202
-392 -11 -67 -13 -182 -11 -586 4 -561 3 -552 78 -702 74 -151 174 -251 325
-325 163 -81 42 -74 1518 -78 l1317 -2 0 100 0 100 -1293 0 c-1129 0 -1300 2
-1352 15 -181 48 -332 199 -380 380 -22 87 -22 1023 0 1110 47 181 199 333
380 380 89 23 1961 23 2050 0 181 -47 333 -199 380 -380 12 -47 15 -122 15
-357 l0 -298 -1320 0 -1320 0 0 -325 0 -325 1420 0 1420 0 0 100 0 100 -1320
0 -1320 0 0 125 0 125 1321 0 1320 0 -3 423 c-5 471 -5 475 -78 622 -74 151
-174 251 -325 325 -160 79 -82 74 -1185 77 -769 1 -1000 -1 -1055 -11z"/>
<path d="M8160 3300 l0 -1150 100 0 100 0 0 1050 0 1050 1908 0 c2104 0 1959
4 2086 -63 78 -40 173 -135 213 -213 65 -122 63 -95 63 -1001 l0 -823 100 0
101 0 -3 848 c-4 947 0 889 -78 1047 -75 152 -176 254 -325 326 -168 81 46 74
-2232 77 l-2033 2 0 -1150z"/>
<path d="M13650 4430 c-133 -35 -233 -92 -335 -195 -73 -72 -99 -107 -133
-175 -85 -171 -82 -132 -82 -1077 l0 -833 300 0 300 0 0 425 0 425 1320 0
1320 0 0 300 0 300 -1320 0 -1320 0 0 125 0 125 1320 0 1320 0 0 300 0 300
-1307 -1 c-1258 0 -1311 -1 -1383 -19z"/>
<path d="M16530 3300 l0 -1150 300 0 300 0 0 1150 0 1150 -300 0 -300 0 0
-1150z"/>
<path d="M5060 3725 l0 -325 1220 0 1220 0 0 325 0 325 -1220 0 -1220 0 0
-325z m2240 0 l0 -125 -1020 0 -1020 0 0 125 0 125 1020 0 1020 0 0 -125z"/>
<path d="M8560 3100 l0 -950 100 0 100 0 0 850 0 850 720 0 720 0 0 -850 0
-850 100 0 100 0 0 950 0 950 -920 0 -920 0 0 -950z"/>
<path d="M10600 3100 l0 -950 100 0 100 0 0 850 0 850 715 0 715 0 0 -850 0
-850 100 0 100 0 0 950 0 950 -915 0 -915 0 0 -950z"/>
</g>
</svg>
